<svg width="19" height="20" viewBox="0 0 19 20" fill="none" xmlns="http://www.w3.org/2000/svg">
<path d="M10.4935 1.08464C10.5725 0.946557 10.6934 0.837161 10.8386 0.772269C10.9839 0.707376 11.146 0.690347 11.3015 0.723644L11.4285 0.750644C11.9576 0.863975 12.4571 1.08685 12.8948 1.4049C13.3325 1.72296 13.6987 2.12916 13.9699 2.59735C14.2411 3.06553 14.4113 3.58532 14.4694 4.12325C14.5276 4.66118 14.4724 5.20532 14.3075 5.72064L13.6715 7.70664H14.8085C17.4535 7.70664 19.3215 10.2976 18.4845 12.8066L16.9255 17.4846C16.7098 18.1317 16.296 18.6944 15.7426 19.0932C15.1893 19.492 14.5246 19.7066 13.8425 19.7066H8.55353C7.52436 19.7068 6.52623 19.3542 5.72553 18.7076C5.58347 19.0066 5.35952 19.2592 5.07967 19.4361C4.79983 19.6129 4.47556 19.7067 4.14453 19.7066H1.89453C1.4304 19.7066 0.985283 19.5223 0.657094 19.1941C0.328906 18.8659 0.144531 18.4208 0.144531 17.9566V9.45664C0.144531 8.49064 0.928531 7.70664 1.89453 7.70664H6.56453C6.6086 7.70663 6.65188 7.69497 6.68998 7.67284C6.72809 7.65071 6.75967 7.61891 6.78153 7.58064L10.4935 1.08464ZM5.89453 16.8666L6.57753 17.4646C7.12457 17.9432 7.82673 18.2068 8.55353 18.2066H13.8425C14.2098 18.2066 14.5678 18.0909 14.8657 17.8761C15.1637 17.6613 15.3865 17.3581 15.5025 17.0096L17.0615 12.3326C17.1805 11.9756 17.213 11.5955 17.1562 11.2235C17.0995 10.8515 16.9551 10.4983 16.7351 10.193C16.5151 9.88771 16.2257 9.63908 15.8907 9.4676C15.5558 9.29611 15.1848 9.20667 14.8085 9.20664H12.6445C12.5264 9.20662 12.41 9.1787 12.3047 9.12517C12.1995 9.07163 12.1083 8.994 12.0388 8.89858C11.9692 8.80317 11.9231 8.69266 11.9043 8.57607C11.8855 8.45948 11.8945 8.3401 11.9305 8.22764L12.8785 5.26364C13.0615 4.69255 13.0216 4.07338 12.7669 3.53046C12.5123 2.98754 12.0616 2.56106 11.5055 2.33664L8.08353 8.32464C7.93053 8.59249 7.70946 8.81514 7.4427 8.97003C7.17595 9.12492 6.87299 9.20654 6.56453 9.20664H5.89453V16.8666ZM4.39453 9.20664H1.89453C1.82823 9.20664 1.76464 9.23298 1.71775 9.27987C1.67087 9.32675 1.64453 9.39034 1.64453 9.45664V17.9566C1.64453 18.0946 1.75653 18.2066 1.89453 18.2066H4.14453C4.21084 18.2066 4.27442 18.1803 4.32131 18.1334C4.36819 18.0865 4.39453 18.0229 4.39453 17.9566V9.20664Z" fill="#6D6D6D"/>
</svg>
