<svg width="168" height="44" viewBox="0 0 168 44" fill="none" xmlns="http://www.w3.org/2000/svg">
<g clip-path="url(#clip0_1071_12)" filter="url(#filter0_d_1071_12)">
<path d="M17.5263 30.2745C17.3831 30.2745 17.2336 30.2586 17.0825 30.2284C16.4128 30.0982 15.293 29.66 15.3423 28.1975C15.3709 27.3623 15.39 26.5096 15.4075 25.6854V25.6489C15.425 24.8518 15.4457 23.9483 15.4743 23.0765C15.53 21.4982 15.5411 19.9007 15.5538 18.3541V18.2779C15.5618 17.4045 15.5682 16.501 15.5841 15.6102C15.6032 14.4129 15.5316 13.1823 15.4632 11.9914C15.3741 10.4638 15.2834 8.88864 15.3725 7.3055C15.4043 6.71639 15.4536 5.82558 16.1488 5.09832C16.5623 4.66165 17.0809 4.42188 17.6042 4.42188C17.7553 4.42188 17.9049 4.44252 18.0496 4.48222C18.6541 4.65371 19.0836 5.13961 19.2251 5.81764C19.5417 7.28645 20.6233 8.32335 21.7686 9.42059L21.8291 9.47934C22.2172 9.85091 22.8439 10.1304 23.4484 10.4003L23.4818 10.4162C23.609 10.4734 23.7363 10.5305 23.8604 10.5877C24.4553 10.864 25.0741 11.1244 25.6722 11.3769C26.6059 11.7707 27.5651 12.174 28.4861 12.6536C29.9654 13.4221 31.3843 14.2256 32.4866 15.407C32.4659 14.6988 32.4453 14.0033 32.4294 13.3332C32.396 11.9866 32.3641 10.5432 32.3705 9.12206C32.3705 8.71079 32.3705 8.3821 32.2496 8.12168C32.1064 7.81045 32.0015 7.48652 31.9347 7.15783C31.7915 6.46709 31.9092 5.81288 32.2703 5.32063C32.5996 4.86966 33.1086 4.58702 33.7019 4.52668C33.7846 4.51874 33.8657 4.51397 33.9469 4.51397C34.475 4.51397 34.9728 4.69817 35.3467 5.03004C35.7952 5.4286 36.0466 6.01295 36.0545 6.67352C36.0656 7.6342 36.0672 8.89975 35.9845 10.1669C35.9145 11.2403 35.9368 12.3788 36.0497 13.5523C36.3377 16.5217 36.2518 19.2656 36.1611 22.1714C36.115 23.6545 36.0672 25.1884 36.0752 26.7319C36.0752 27.2019 35.9352 28.0705 35.8509 28.5484C35.6823 29.4932 34.8599 30.2078 33.9357 30.2141C33.0386 30.2141 32.3562 29.5567 32.1446 28.4976C32.0699 28.1372 32.0874 27.8672 32.1033 27.6513C32.108 27.5798 32.1128 27.5036 32.1144 27.4163C32.1303 25.6457 31.9649 23.7609 31.6372 21.9634C31.1298 19.1941 29.5693 17.1568 27.126 16.0739C26.6886 15.8802 26.248 15.688 25.8074 15.4959C24.433 14.8957 23.0173 14.2764 21.6477 13.5968C20.7474 13.1506 19.9266 12.625 19.1965 12.0263C19.1901 13.0585 19.2076 14.097 19.2235 15.1116L19.2379 15.9738C19.2824 18.6463 19.2331 21.3171 19.1822 23.6116C19.1758 23.9229 19.1536 24.2246 19.1329 24.5183C19.0677 25.406 19.0183 26.1031 19.3317 26.7763C19.6514 27.4528 19.6467 28.2658 19.3158 29.0042C18.8259 30.1077 17.9812 30.2729 17.5231 30.2729L17.5263 30.2745Z" fill="#911A00"/>
<path d="M121.44 35.6175C120.99 35.6175 120.576 35.4762 120.245 35.211C119.692 34.7664 119.447 34.0328 119.571 33.2008C119.676 32.4767 120.119 31.9828 120.493 31.6335C121.457 30.7411 121.704 30.2473 121.755 29.1151C121.79 28.3354 121.826 27.5574 121.864 26.7777C121.971 24.5467 122.082 22.2395 122.122 19.9736C122.138 19.1304 122.157 18.2872 122.178 17.4424C122.257 14.0856 122.34 10.6192 122.103 7.23066C121.204 7.18144 120.511 6.51293 120.399 5.56972C120.304 4.7583 120.781 3.84367 122.065 3.63248C123.057 3.46734 124.061 3.38477 125.046 3.38477C127.917 3.38477 130.397 4.08027 132.417 5.45062C135.565 7.58635 136.938 9.15678 137.28 13.3504L137.284 13.3997V13.4489C137.281 13.506 137.24 14.851 136.756 15.7212C136.713 15.8006 136.69 15.8688 136.643 16.0181C136.467 16.585 136.227 17.3615 134.407 19.5289C133.282 20.8707 131.87 21.8092 130.635 22.5523C129.861 23.0176 128.566 23.2383 128.046 23.3113C127.896 23.3336 127.744 23.3447 127.596 23.3447C126.77 23.3447 126.077 23.0144 125.677 22.4713C125.598 25.0961 125.475 27.7527 125.213 30.3807C125.2 30.5013 125.191 30.6125 125.179 30.7189L125.173 30.784C125.089 31.697 125.027 32.3576 124.454 33.458C123.945 34.4377 123.234 35.1063 122.338 35.4429C122.033 35.5588 121.729 35.6175 121.437 35.6175H121.44ZM125.701 7.07822C125.992 10.1079 125.913 13.1535 125.836 16.1023L125.833 16.2356C125.809 17.136 125.789 18.0363 125.768 18.9382C125.758 19.3797 125.749 19.8211 125.738 20.2657C126.119 19.783 126.718 19.4591 127.389 19.3702C128.094 19.2812 128.905 19.0637 129.244 18.8731C130.731 18.0316 131.984 16.6787 132.769 15.0654L132.781 15.0415L132.794 15.0177C133.519 13.7315 133.653 13.4949 132.81 11.1893C132.223 9.89992 131.157 8.85985 129.551 8.00873C128.68 7.54665 127.341 7.33705 126.158 7.15127C126.002 7.12745 125.849 7.10204 125.701 7.07822Z" fill="#911A00"/>
<path d="M49.8585 33.1071C48.5383 33.1071 47.183 32.7085 45.9391 31.9527L45.9041 31.932C45.885 31.9193 45.8707 31.9114 45.8564 31.9035C43.9428 31.0428 42.3521 29.3152 41.1305 26.7698C40.7885 26.0568 40.7264 25.4455 40.9412 24.8992C41.1352 24.4022 41.5361 24.0306 42.131 23.7956C42.473 23.6591 42.815 23.5908 43.1443 23.5908C43.4481 23.5908 43.7376 23.6496 44.0032 23.7655C44.517 23.9894 44.9195 24.4213 45.1374 24.9834C45.2296 25.2216 45.3076 25.4121 45.3855 25.6011C45.5366 25.9711 45.6909 26.3442 45.928 27.0111C46.2445 27.8972 46.7949 28.4466 47.2005 28.5959C47.3532 28.6514 47.5075 28.7102 47.6634 28.7705L47.7 28.7848C48.5414 29.1056 49.332 29.4073 50.121 29.4073C50.3405 29.4073 50.5489 29.3835 50.7557 29.3358C50.8972 29.3025 51.034 29.2818 51.1565 29.2628C51.2631 29.2469 51.419 29.2231 51.4731 29.2024C53.6857 27.7733 55.0966 26.3188 54.8071 23.8655C54.7737 23.5908 54.7769 23.3256 54.7801 23.0922C54.7801 22.9699 54.7833 22.8492 54.7801 22.7349C54.7435 21.8457 54.7435 21.8171 54.3124 21.0438C53.9036 20.5547 53.5934 20.0117 53.3198 19.494C52.8474 18.5921 52.1411 17.8998 51.2233 17.4313C50.8829 17.2583 50.5536 17.0741 50.2339 16.8962C49.5149 16.4961 48.7832 16.088 48.0356 15.853C45.8166 15.1527 44.2387 13.6204 42.9327 12.2389C42.4301 11.7085 42.131 11.0861 42.0467 10.3874C42.0244 10.2096 41.9974 10.0254 41.9719 9.84117C41.9067 9.38227 41.8335 8.86302 41.8049 8.34695C41.7317 6.98295 42.1437 5.79202 42.9947 4.90121C43.8521 4.00405 45.0992 3.51021 46.5054 3.51021H46.8171C47.8972 3.51021 49.0011 3.47686 50.0685 3.44352H50.1019C50.805 3.42129 51.5224 3.39906 52.2302 3.38477C52.2827 3.38477 52.332 3.38477 52.3797 3.38477C52.884 3.38477 53.3342 3.42446 53.7589 3.50703C54.6926 3.68647 55.3082 4.40896 55.2891 5.30771C55.2621 6.28745 54.5192 6.94166 53.7939 7.16079C53.5823 7.22431 53.3628 7.25607 53.1385 7.25607C53.0526 7.25607 52.9635 7.2513 52.876 7.24178C52.6279 7.21478 52.3034 7.20049 51.9089 7.20049C51.5144 7.20049 51.0324 7.21478 50.4821 7.24336H50.4598H50.4073H50.3787C50.1146 7.22907 49.8394 7.22272 49.542 7.22272C49.0473 7.22272 48.5605 7.24019 48.0467 7.25924C47.5027 7.27989 46.9539 7.30053 46.3558 7.30053C46.0823 7.30053 45.9486 7.31006 45.8834 7.31799C45.8452 7.36404 45.788 7.43868 45.7403 7.50219C45.7021 7.553 45.6607 7.60699 45.6146 7.66574C45.6082 7.72926 45.605 7.81183 45.6019 7.87376C45.5923 8.0516 45.5828 8.2485 45.543 8.45017C45.3903 9.26635 45.6035 9.74589 46.499 10.5811C47.5473 11.5561 48.8707 12.2071 50.148 12.8375C50.4439 12.9836 50.7382 13.1281 51.0309 13.2774C51.1852 13.3552 51.3394 13.433 51.4953 13.5108L51.551 13.5394C52.2143 13.8713 52.9015 14.2158 53.5648 14.6239C54.7626 15.3607 56.2292 16.4278 56.9482 18.1634C57.1486 18.6461 57.392 19.0923 57.6497 19.5639L57.8262 19.8894C58.647 21.417 58.5245 23.0192 58.4148 24.4308C58.4005 24.6213 58.3862 24.804 58.3734 24.985L58.3543 25.2787C58.2939 26.2569 58.2271 27.3652 57.6401 28.4672C56.2387 31.0905 53.9975 32.5878 50.7843 33.042C50.4789 33.0849 50.1671 33.1071 49.8553 33.1071H49.8585Z" fill="#911A00"/>
<path d="M152.852 31.6443C152.263 31.6443 151.686 31.4236 151.304 31.0521C150.93 30.6884 150.755 30.2009 150.811 29.6785C150.879 29.0275 151.061 28.6003 151.167 28.3431C151.181 28.3082 151.201 28.2653 151.212 28.2351C151.267 25.3356 151.286 22.2249 151.307 19.2158V19.1666C151.326 16.1147 151.347 12.9595 151.404 10.0013C151.409 9.75832 151.404 9.49631 151.401 9.26448C151.398 9.11998 151.396 8.97548 151.395 8.82781L151.29 8.85639L150.738 9.00247C148.315 9.6424 147.664 9.81389 146.257 11.9528C145.652 12.869 145.307 13.8233 145.173 14.9571C145.17 14.9777 145.164 15.0444 145.306 15.108C145.948 15.4033 146.219 15.8384 146.332 16.1528C146.503 16.6307 146.451 17.1611 146.174 17.728C145.964 18.1583 145.606 18.4695 145.164 18.6045C145 18.6537 144.827 18.6791 144.649 18.6791C144.251 18.6791 143.834 18.5553 143.409 18.3107C142.146 17.5898 141.507 16.5641 141.512 15.2652C141.523 11.1573 144.359 7.15257 148.258 5.7441C150.922 4.78025 152.78 4.67862 155.131 4.55159L155.238 4.54524C155.542 4.52777 155.856 4.51189 156.186 4.49125C156.687 4.46267 157.667 4.42773 157.676 4.42773H159.784C160.067 4.42773 160.355 4.42773 161.262 4.43091H161.478C161.817 4.43091 162.213 4.44044 162.612 4.56906C164.133 5.05337 164.037 6.16649 163.972 6.49518C163.789 7.43998 163.086 8.05291 162.181 8.05291C162.117 8.05291 162.054 8.04974 161.987 8.04338C161.618 8.01004 161.308 8.00527 161.08 8.00527C160.932 8.00527 160.786 8.00686 160.638 8.01004C160.463 8.01321 160.29 8.0148 160.105 8.0148C159.983 8.0148 159.855 8.0148 159.72 8.01163C159.577 8.00845 159.442 8.00686 159.315 8.00686C158.674 8.00686 158.209 8.04338 157.759 8.07832C157.336 8.11166 156.897 8.14501 156.346 8.14501C155.974 8.14501 155.583 8.12913 155.153 8.09737C155.134 8.09737 155.114 8.0942 155.095 8.09261C155.09 8.15136 155.083 8.2244 155.079 8.31174C154.956 10.3633 155.028 12.5181 155.096 14.6014C155.158 16.4704 155.222 18.3965 155.15 20.2702C155.13 20.8069 155.104 21.35 155.08 21.8978L155.075 21.9899C154.98 24.0875 154.881 26.2518 154.97 28.2828C154.977 28.3177 155.033 28.432 155.072 28.5162C155.255 28.8877 155.594 29.5801 155.201 30.5122C154.784 31.4998 153.731 31.5808 153.281 31.6142C153.221 31.6189 153.163 31.6221 153.114 31.6285C153.03 31.6396 152.942 31.6443 152.852 31.6443Z" fill="#911A00"/>
<path d="M74.4081 31.3762C73.4394 31.3762 72.5152 31.2729 71.5847 31.0602C69.8508 30.6632 68.2045 29.9248 66.6902 28.8609C65.0438 27.7081 63.7903 25.9694 62.8566 23.5446C61.934 21.1469 61.5284 19.0906 61.6175 17.2566C61.5666 14.4253 62.0979 11.9291 63.2416 9.62351C64.7543 6.56839 66.6536 4.70896 68.8869 4.09603L69.1541 4.02299C70.328 3.70065 71.5385 3.36719 72.8429 3.36719C73.1388 3.36719 73.433 3.38465 73.721 3.418C74.1218 3.46723 74.5449 3.52439 74.984 3.6546C75.9574 3.94201 76.6414 4.90586 76.5396 5.85066C76.4903 6.31751 76.2485 6.72718 75.8556 7.00189C75.4087 7.31471 74.9076 7.36234 74.6483 7.36234C74.4797 7.36234 74.3175 7.34329 74.1679 7.30677C73.9246 7.24643 73.6716 7.21785 73.3933 7.21785C72.7045 7.21785 71.9919 7.39569 71.2379 7.58306L71.1043 7.61641C68.6674 8.21981 67.2962 9.62987 66.2098 12.6453C65.1361 15.6305 65.1329 18.6698 66.2002 21.6757C67.021 23.9877 68.2013 25.4962 69.8079 26.2885C70.0863 26.4267 70.3408 26.5601 70.565 26.6791C71.4638 27.1539 72.0587 27.4667 72.9686 27.4667H73.0401C73.7114 27.4525 74.4256 27.2937 75.116 27.1412C75.3482 27.0888 75.582 27.038 75.8143 26.9904C75.9813 26.957 76.1499 26.9396 76.3154 26.9396C77.3445 26.9396 78.1812 27.6065 78.396 28.5973C78.5184 29.1706 78.3896 29.7867 78.0428 30.2869C77.6929 30.7918 77.1695 31.1205 76.5699 31.2094C75.835 31.3206 75.108 31.3762 74.4113 31.3762H74.4081Z" fill="#911A00"/>
<path d="M111.53 30.2767C111.006 30.2767 110.555 30.1449 110.224 29.8956C109.462 29.3192 108.902 28.3077 109.613 27.1946C109.626 27.1565 109.627 27.0024 109.629 26.8992C109.629 26.8039 109.629 26.7087 109.635 26.615C109.829 23.2248 109.925 20.1919 109.928 17.3432C109.928 16.6509 109.99 15.9665 110.049 15.306C110.074 15.0185 110.1 14.7343 110.12 14.4485C110.125 14.3929 110.133 14.3389 110.146 14.2865C110.144 13.9261 110.136 13.564 110.13 13.2099C110.109 12.1508 110.09 11.0663 110.182 9.98014C110.217 9.56411 110.176 9.12903 110.131 8.66854C110.087 8.2001 110.036 7.67292 110.071 7.12986C110.014 7.0854 109.931 7.02823 109.869 6.98536L109.843 6.96789C109.096 6.45183 108.794 5.59436 109.078 4.78294C109.349 4.01281 110.025 3.52374 110.887 3.47769L111.067 3.46657C111.363 3.44911 111.668 3.43164 111.988 3.43164C112.22 3.43164 112.43 3.44117 112.63 3.46181C113.45 3.54597 114.083 3.98105 114.329 4.62733C114.571 5.26249 114.391 5.99292 113.849 6.58045C113.725 6.71542 113.71 6.80116 113.726 7.28389L113.73 7.38551C113.742 7.77455 113.771 8.17787 113.8 8.56691C113.852 9.3037 113.908 10.0643 113.865 10.8408C113.852 11.0631 113.839 11.2838 113.825 11.5061C113.765 12.5081 113.702 13.545 113.723 14.5469C113.774 16.9177 113.661 19.3059 113.551 21.6147C113.488 22.9565 113.423 24.3427 113.391 25.7019C113.375 26.3641 113.418 26.5816 113.612 26.8071C114.377 27.7043 114.321 28.8301 113.477 29.6114C112.942 30.102 112.093 30.2767 111.528 30.2767H111.53Z" fill="#911A00"/>
<path d="M6.6314 30.2758C6.25441 30.2758 5.85992 30.1741 5.45589 29.9709C4.66055 29.5739 4.29947 28.8085 4.45535 27.8653C4.57147 25.2246 4.57147 25.204 4.50467 22.4236C4.47603 21.1215 4.47921 17.8346 4.4824 15.8719V14.8207C4.47921 14.7683 4.47921 14.7143 4.4824 14.6619V11.1908C4.4824 11.0685 4.48399 10.9463 4.48717 10.8224C4.49671 10.3333 4.50307 9.94746 4.36628 9.60924C4.0211 8.75495 4.28038 7.86414 4.99778 7.44175C5.40022 7.20198 5.84879 7.07812 6.32599 7.07812C6.72684 7.07812 7.13883 7.16546 7.54604 7.33854C8.57998 7.77839 8.53067 8.84387 8.51477 9.1948C8.49727 9.5743 8.40501 9.90459 8.32388 10.1952C8.25867 10.427 8.19822 10.6445 8.19663 10.8256C8.19345 11.34 8.18709 11.8529 8.18072 12.3658V12.4421C8.16323 13.7981 8.14573 15.1939 8.18072 16.5595C8.21095 17.7679 8.21572 18.9159 8.22049 20.0275C8.22526 21.2533 8.23163 22.5173 8.27139 23.84C8.28253 24.1671 8.27139 24.5117 8.26503 24.8451C8.24276 25.7121 8.21731 26.6935 8.55771 27.3477C8.99674 28.2036 8.71042 29.2373 7.861 29.8645C7.49037 30.1376 7.07679 30.2758 6.62981 30.2758H6.6314Z" fill="#911A00"/>
<path d="M6.34953 4.724C4.93383 4.68431 3.98896 3.78714 4.0001 2.493C4.00646 1.71493 4.29278 1.03214 4.80816 0.570056C5.22492 0.1969 5.75143 0 6.33044 0C6.38293 0 6.43384 0.0015879 6.48792 0.0047637C7.84159 0.0873345 8.78486 1.20998 8.73396 2.67244C8.68942 3.90147 7.77319 4.72718 6.45292 4.72718C6.41952 4.72718 6.38452 4.72718 6.34953 4.72718V4.724Z" fill="#911A00"/>
<path d="M106.685 35.6632C106.52 35.6632 106.342 35.6458 106.141 35.6092C105.119 35.4282 103.819 35.0916 102.852 34.0865C102.497 33.7149 102.103 33.3608 101.719 33.0162C101.427 32.7542 101.135 32.4938 100.854 32.2191C98.8131 30.239 97.5676 28.6288 95.8496 26.1708C94.6646 24.4781 93.8199 22.671 93.0819 20.972C93.0564 20.9132 93.031 20.8561 93.0071 20.7989C92.2134 21.3308 91.3067 21.8167 90.4254 22.2868L90.4 22.3011C90.1073 22.4583 89.821 22.6107 89.549 22.76C89.5426 22.8139 89.5378 22.8854 89.5331 22.9426C89.5219 23.076 89.5092 23.2411 89.4806 23.4285C89.1815 25.3514 89.3485 27.7761 89.541 29.472C89.6667 30.5978 89.2801 31.4108 88.3925 31.8872C88.0124 32.092 87.6147 32.1968 87.2107 32.1968C86.7271 32.1968 86.2547 32.0428 85.8411 31.7491C85.0887 31.2203 84.769 30.3374 84.9694 29.3291C85.243 27.981 85.2462 26.5519 85.2494 25.1688C85.251 24.3177 85.2541 23.4459 85.313 22.5758C85.4212 21.0276 85.4291 19.4333 85.4371 17.893C85.4466 15.9844 85.4577 14.0186 85.6502 12.0655C85.7154 11.4144 85.7298 10.7332 85.7441 10.0742C85.76 9.32632 85.7775 8.5546 85.8634 7.77336C85.6725 7.77653 85.4848 7.78447 85.2987 7.79241H85.2796C84.9885 7.80511 84.6879 7.81623 84.3809 7.81623C84.2584 7.81623 84.1375 7.81464 84.015 7.80988C83.3215 7.78447 82.6741 7.48595 82.2366 6.9937C81.8739 6.58402 81.699 6.08383 81.7403 5.58364C81.8374 4.48482 83.0717 3.70357 84.12 3.68769C84.5161 3.68134 84.9185 3.67975 85.3178 3.67975C85.6343 3.67975 85.9477 3.67975 86.2579 3.68293C86.5712 3.68293 86.8846 3.6861 87.1964 3.6861C87.2886 3.6861 87.3729 3.6861 87.4572 3.6861C88.6725 3.6861 89.9132 3.61941 90.9822 3.55748C91.3242 3.53843 91.6566 3.51461 91.9811 3.49238C92.813 3.43521 93.5988 3.38281 94.3974 3.38281C95.9228 3.38281 97.189 3.58289 98.5029 4.03385C100.684 4.77699 102.416 7.65268 102.134 10.0663C101.829 12.6546 100.735 14.7951 98.689 16.8069C97.935 17.5501 97.2494 18.0741 96.4541 18.6806C96.4541 18.6806 96.2346 18.849 96.1503 18.9125C96.6259 19.6556 96.952 20.4384 97.2669 21.1975C97.3703 21.4468 97.4737 21.6961 97.5835 21.9422C98.083 23.0648 98.8513 24.1081 99.5925 25.118C99.7516 25.3324 99.9091 25.5483 100.065 25.7643C100.483 26.3423 100.809 26.6995 101.186 27.1156C101.535 27.4998 101.894 27.8936 102.335 28.4748C103.297 29.7372 104.339 30.5661 105.613 31.0837C105.758 31.1425 105.903 31.1996 106.046 31.2568L106.073 31.2679C106.487 31.4315 106.91 31.5982 107.328 31.7983L107.382 31.8253C108.367 32.3001 108.807 33.3433 108.454 34.3596C108.165 35.198 107.535 35.6601 106.679 35.6601L106.685 35.6632ZM89.4869 7.44784C89.4726 7.86546 89.4615 8.28307 89.4503 8.6991C89.4138 10.0409 89.3772 11.4255 89.2277 12.7943C89.0543 14.387 89.0606 15.7144 89.067 17.1197C89.0702 17.6485 89.0718 18.1852 89.067 18.7521C90.0405 18.0899 91.0156 17.5469 91.9604 17.0197C93.4302 16.2003 94.8141 15.4286 96.0946 14.2853C97.2956 13.2119 97.6789 12.4164 98.1545 10.7157C98.4154 9.78205 98.3216 8.81978 97.908 8.20368C97.558 7.68126 96.9997 7.38115 96.1996 7.28746C95.2197 7.17154 94.3735 7.11755 93.5352 7.11755C92.2658 7.11755 91.0283 7.243 89.4901 7.44943L89.4869 7.44784Z" fill="#911A00"/>
</g>
<defs>
<filter id="filter0_d_1071_12" x="0" y="0" width="168" height="43.6621" filterUnits="userSpaceOnUse" color-interpolation-filters="sRGB">
<feFlood flood-opacity="0" result="BackgroundImageFix"/>
<feColorMatrix in="SourceAlpha" type="matrix" values="0 0 0 0 0 0 0 0 0 0 0 0 0 0 0 0 0 0 127 0" result="hardAlpha"/>
<feOffset dy="4"/>
<feGaussianBlur stdDeviation="2"/>
<feComposite in2="hardAlpha" operator="out"/>
<feColorMatrix type="matrix" values="0 0 0 0 0 0 0 0 0 0 0 0 0 0 0 0 0 0 0.25 0"/>
<feBlend mode="normal" in2="BackgroundImageFix" result="effect1_dropShadow_1071_12"/>
<feBlend mode="normal" in="SourceGraphic" in2="effect1_dropShadow_1071_12" result="shape"/>
</filter>
<clipPath id="clip0_1071_12">
<rect width="160" height="35.6627" fill="white" transform="translate(4)"/>
</clipPath>
</defs>
</svg>
